<mxfile host="app.diagrams.net" agent="Mozilla/5.0 (Windows NT 10.0; Win64; x64) AppleWebKit/537.36 (KHTML, like Gecko) Chrome/139.0.0.0 Safari/537.36" version="28.1.1">
  <diagram name="Trang-1" id="57OtDuVGGtOO1k8ljJCp">
    <mxGraphModel dx="1281" dy="535" grid="1" gridSize="10" guides="1" tooltips="1" connect="1" arrows="1" fold="1" page="1" pageScale="1" pageWidth="827" pageHeight="1169" math="0" shadow="0">
      <root>
        <mxCell id="myIlJPlCRd8tXCbRHFYI-0" />
        <mxCell id="myIlJPlCRd8tXCbRHFYI-1" parent="myIlJPlCRd8tXCbRHFYI-0" />
        <mxCell id="AD6BldFnmuoz9lDEGxIW-10" style="edgeStyle=orthogonalEdgeStyle;rounded=0;orthogonalLoop=1;jettySize=auto;html=1;" edge="1" parent="myIlJPlCRd8tXCbRHFYI-1" source="AD6BldFnmuoz9lDEGxIW-0" target="AD6BldFnmuoz9lDEGxIW-11">
          <mxGeometry relative="1" as="geometry">
            <mxPoint x="260" y="50" as="targetPoint" />
          </mxGeometry>
        </mxCell>
        <mxCell id="AD6BldFnmuoz9lDEGxIW-0" value="" style="ellipse;whiteSpace=wrap;html=1;" vertex="1" parent="myIlJPlCRd8tXCbRHFYI-1">
          <mxGeometry x="60" y="10" width="120" height="80" as="geometry" />
        </mxCell>
        <mxCell id="AD6BldFnmuoz9lDEGxIW-12" style="edgeStyle=orthogonalEdgeStyle;rounded=0;orthogonalLoop=1;jettySize=auto;html=1;" edge="1" parent="myIlJPlCRd8tXCbRHFYI-1" source="AD6BldFnmuoz9lDEGxIW-11">
          <mxGeometry relative="1" as="geometry">
            <mxPoint x="450" y="50" as="targetPoint" />
          </mxGeometry>
        </mxCell>
        <mxCell id="AD6BldFnmuoz9lDEGxIW-11" value="" style="rounded=0;whiteSpace=wrap;html=1;" vertex="1" parent="myIlJPlCRd8tXCbRHFYI-1">
          <mxGeometry x="270" y="20" width="120" height="60" as="geometry" />
        </mxCell>
        <mxCell id="AD6BldFnmuoz9lDEGxIW-14" style="edgeStyle=orthogonalEdgeStyle;rounded=0;orthogonalLoop=1;jettySize=auto;html=1;" edge="1" parent="myIlJPlCRd8tXCbRHFYI-1" source="AD6BldFnmuoz9lDEGxIW-13" target="AD6BldFnmuoz9lDEGxIW-15">
          <mxGeometry relative="1" as="geometry">
            <mxPoint x="510" y="160" as="targetPoint" />
          </mxGeometry>
        </mxCell>
        <mxCell id="AD6BldFnmuoz9lDEGxIW-13" value="" style="rounded=0;whiteSpace=wrap;html=1;" vertex="1" parent="myIlJPlCRd8tXCbRHFYI-1">
          <mxGeometry x="450" y="20" width="120" height="60" as="geometry" />
        </mxCell>
        <mxCell id="AD6BldFnmuoz9lDEGxIW-16" style="edgeStyle=orthogonalEdgeStyle;rounded=0;orthogonalLoop=1;jettySize=auto;html=1;" edge="1" parent="myIlJPlCRd8tXCbRHFYI-1" source="AD6BldFnmuoz9lDEGxIW-15">
          <mxGeometry relative="1" as="geometry">
            <mxPoint x="300" y="205" as="targetPoint" />
          </mxGeometry>
        </mxCell>
        <mxCell id="AD6BldFnmuoz9lDEGxIW-17" style="edgeStyle=orthogonalEdgeStyle;rounded=0;orthogonalLoop=1;jettySize=auto;html=1;entryX=0.5;entryY=0;entryDx=0;entryDy=0;exitX=0.5;exitY=1;exitDx=0;exitDy=0;" edge="1" parent="myIlJPlCRd8tXCbRHFYI-1" source="AD6BldFnmuoz9lDEGxIW-15">
          <mxGeometry relative="1" as="geometry">
            <mxPoint x="509.5" y="405" as="targetPoint" />
            <mxPoint x="504.5" y="265" as="sourcePoint" />
            <Array as="points">
              <mxPoint x="510" y="340" />
            </Array>
          </mxGeometry>
        </mxCell>
        <mxCell id="AD6BldFnmuoz9lDEGxIW-15" value="&#xa;Is guess = secretNumber?&#xa;&#xa;" style="rhombus;whiteSpace=wrap;html=1;fontStyle=1" vertex="1" parent="myIlJPlCRd8tXCbRHFYI-1">
          <mxGeometry x="415" y="150" width="190" height="110" as="geometry" />
        </mxCell>
        <mxCell id="AD6BldFnmuoz9lDEGxIW-29" style="edgeStyle=orthogonalEdgeStyle;rounded=0;orthogonalLoop=1;jettySize=auto;html=1;" edge="1" parent="myIlJPlCRd8tXCbRHFYI-1" source="AD6BldFnmuoz9lDEGxIW-18" target="AD6BldFnmuoz9lDEGxIW-20">
          <mxGeometry relative="1" as="geometry" />
        </mxCell>
        <mxCell id="AD6BldFnmuoz9lDEGxIW-18" value="" style="rounded=0;whiteSpace=wrap;html=1;" vertex="1" parent="myIlJPlCRd8tXCbRHFYI-1">
          <mxGeometry x="175" y="185" width="130" height="65" as="geometry" />
        </mxCell>
        <mxCell id="AD6BldFnmuoz9lDEGxIW-21" style="edgeStyle=orthogonalEdgeStyle;rounded=0;orthogonalLoop=1;jettySize=auto;html=1;" edge="1" parent="myIlJPlCRd8tXCbRHFYI-1" source="AD6BldFnmuoz9lDEGxIW-20">
          <mxGeometry relative="1" as="geometry">
            <mxPoint x="240" y="460" as="targetPoint" />
          </mxGeometry>
        </mxCell>
        <mxCell id="AD6BldFnmuoz9lDEGxIW-20" value="&#xa;Input guess &#xa;&#xa;" style="rounded=0;whiteSpace=wrap;html=1;fontStyle=1" vertex="1" parent="myIlJPlCRd8tXCbRHFYI-1">
          <mxGeometry x="180" y="310" width="120" height="60" as="geometry" />
        </mxCell>
        <mxCell id="AD6BldFnmuoz9lDEGxIW-32" style="edgeStyle=orthogonalEdgeStyle;rounded=0;orthogonalLoop=1;jettySize=auto;html=1;" edge="1" parent="myIlJPlCRd8tXCbRHFYI-1" source="AD6BldFnmuoz9lDEGxIW-22">
          <mxGeometry relative="1" as="geometry">
            <mxPoint x="240" y="600" as="targetPoint" />
          </mxGeometry>
        </mxCell>
        <mxCell id="AD6BldFnmuoz9lDEGxIW-22" value="" style="rounded=0;whiteSpace=wrap;html=1;" vertex="1" parent="myIlJPlCRd8tXCbRHFYI-1">
          <mxGeometry x="180" y="460" width="120" height="60" as="geometry" />
        </mxCell>
        <mxCell id="AD6BldFnmuoz9lDEGxIW-23" value="Start" style="text;whiteSpace=wrap;html=1;fontStyle=1" vertex="1" parent="myIlJPlCRd8tXCbRHFYI-1">
          <mxGeometry x="100" y="30" width="60" height="40" as="geometry" />
        </mxCell>
        <mxCell id="AD6BldFnmuoz9lDEGxIW-24" value="Display: &lt;em data-end=&quot;289&quot; data-start=&quot;256&quot;&gt;&quot;Welcome to the Guessing Game!&quot;&lt;/em&gt;" style="text;whiteSpace=wrap;html=1;fontStyle=1" vertex="1" parent="myIlJPlCRd8tXCbRHFYI-1">
          <mxGeometry x="275" y="20" width="110" height="60" as="geometry" />
        </mxCell>
        <mxCell id="AD6BldFnmuoz9lDEGxIW-26" value="Initialize variables" style="text;whiteSpace=wrap;html=1;fontStyle=1" vertex="1" parent="myIlJPlCRd8tXCbRHFYI-1">
          <mxGeometry x="450" y="40" width="130" height="40" as="geometry" />
        </mxCell>
        <mxCell id="AD6BldFnmuoz9lDEGxIW-27" value="Enter your guess (between 1 and 100)" style="text;whiteSpace=wrap;html=1;fontStyle=1" vertex="1" parent="myIlJPlCRd8tXCbRHFYI-1">
          <mxGeometry x="180" y="197.5" width="136" height="40" as="geometry" />
        </mxCell>
        <mxCell id="AD6BldFnmuoz9lDEGxIW-30" value="Increment attempts by 1" style="text;whiteSpace=wrap;html=1;fontStyle=1" vertex="1" parent="myIlJPlCRd8tXCbRHFYI-1">
          <mxGeometry x="185.5" y="470" width="125" height="40" as="geometry" />
        </mxCell>
        <mxCell id="AD6BldFnmuoz9lDEGxIW-34" style="edgeStyle=orthogonalEdgeStyle;rounded=0;orthogonalLoop=1;jettySize=auto;html=1;" edge="1" parent="myIlJPlCRd8tXCbRHFYI-1" source="AD6BldFnmuoz9lDEGxIW-33">
          <mxGeometry relative="1" as="geometry">
            <mxPoint x="90" y="210" as="targetPoint" />
          </mxGeometry>
        </mxCell>
        <mxCell id="AD6BldFnmuoz9lDEGxIW-35" style="edgeStyle=orthogonalEdgeStyle;rounded=0;orthogonalLoop=1;jettySize=auto;html=1;" edge="1" parent="myIlJPlCRd8tXCbRHFYI-1" source="AD6BldFnmuoz9lDEGxIW-33">
          <mxGeometry relative="1" as="geometry">
            <mxPoint x="240" y="760" as="targetPoint" />
          </mxGeometry>
        </mxCell>
        <mxCell id="AD6BldFnmuoz9lDEGxIW-33" value="Is&amp;nbsp; guess &amp;lt; secretNumber?" style="rhombus;whiteSpace=wrap;html=1;fontStyle=1" vertex="1" parent="myIlJPlCRd8tXCbRHFYI-1">
          <mxGeometry x="140" y="600" width="200" height="100" as="geometry" />
        </mxCell>
        <mxCell id="AD6BldFnmuoz9lDEGxIW-36" value="" style="endArrow=classic;html=1;rounded=0;entryX=0;entryY=0.5;entryDx=0;entryDy=0;" edge="1" parent="myIlJPlCRd8tXCbRHFYI-1">
          <mxGeometry width="50" height="50" relative="1" as="geometry">
            <mxPoint x="90" y="216" as="sourcePoint" />
            <mxPoint x="175" y="216.25" as="targetPoint" />
          </mxGeometry>
        </mxCell>
        <mxCell id="AD6BldFnmuoz9lDEGxIW-37" value="Yes" style="text;html=1;align=center;verticalAlign=middle;whiteSpace=wrap;rounded=0;fontStyle=1" vertex="1" parent="myIlJPlCRd8tXCbRHFYI-1">
          <mxGeometry x="80" y="610" width="60" height="30" as="geometry" />
        </mxCell>
        <mxCell id="AD6BldFnmuoz9lDEGxIW-38" value="" style="rounded=0;whiteSpace=wrap;html=1;direction=west;" vertex="1" parent="myIlJPlCRd8tXCbRHFYI-1">
          <mxGeometry x="20" y="460" width="120" height="60" as="geometry" />
        </mxCell>
        <mxCell id="AD6BldFnmuoz9lDEGxIW-40" value="Display &lt;em data-end=&quot;755&quot; data-start=&quot;732&quot;&gt;&quot;Too low! Try again.&quot;&lt;/em&gt;" style="text;whiteSpace=wrap;html=1;fontStyle=1" vertex="1" parent="myIlJPlCRd8tXCbRHFYI-1">
          <mxGeometry x="30" y="470" width="120" height="40" as="geometry" />
        </mxCell>
        <mxCell id="AD6BldFnmuoz9lDEGxIW-41" value="No" style="text;html=1;align=center;verticalAlign=middle;whiteSpace=wrap;rounded=0;fontStyle=1" vertex="1" parent="myIlJPlCRd8tXCbRHFYI-1">
          <mxGeometry x="185.5" y="700" width="60" height="30" as="geometry" />
        </mxCell>
        <mxCell id="AD6BldFnmuoz9lDEGxIW-44" style="edgeStyle=orthogonalEdgeStyle;rounded=0;orthogonalLoop=1;jettySize=auto;html=1;" edge="1" parent="myIlJPlCRd8tXCbRHFYI-1" source="AD6BldFnmuoz9lDEGxIW-42">
          <mxGeometry relative="1" as="geometry">
            <mxPoint x="380" y="200" as="targetPoint" />
          </mxGeometry>
        </mxCell>
        <mxCell id="AD6BldFnmuoz9lDEGxIW-46" style="edgeStyle=orthogonalEdgeStyle;rounded=0;orthogonalLoop=1;jettySize=auto;html=1;" edge="1" parent="myIlJPlCRd8tXCbRHFYI-1" source="AD6BldFnmuoz9lDEGxIW-42">
          <mxGeometry relative="1" as="geometry">
            <mxPoint x="240" y="930" as="targetPoint" />
          </mxGeometry>
        </mxCell>
        <mxCell id="AD6BldFnmuoz9lDEGxIW-42" value="" style="rhombus;whiteSpace=wrap;html=1;" vertex="1" parent="myIlJPlCRd8tXCbRHFYI-1">
          <mxGeometry x="130" y="760" width="220" height="120" as="geometry" />
        </mxCell>
        <mxCell id="AD6BldFnmuoz9lDEGxIW-43" value="Is&amp;nbsp;guess &amp;gt; secretNumber?" style="text;html=1;align=center;verticalAlign=middle;whiteSpace=wrap;rounded=0;fontStyle=1" vertex="1" parent="myIlJPlCRd8tXCbRHFYI-1">
          <mxGeometry x="166" y="795" width="150" height="50" as="geometry" />
        </mxCell>
        <mxCell id="AD6BldFnmuoz9lDEGxIW-45" value="Yes" style="text;html=1;align=center;verticalAlign=middle;whiteSpace=wrap;rounded=0;fontStyle=1" vertex="1" parent="myIlJPlCRd8tXCbRHFYI-1">
          <mxGeometry x="385" y="760" width="60" height="30" as="geometry" />
        </mxCell>
        <mxCell id="AD6BldFnmuoz9lDEGxIW-47" value="" style="rounded=0;whiteSpace=wrap;html=1;" vertex="1" parent="myIlJPlCRd8tXCbRHFYI-1">
          <mxGeometry x="140" y="930" width="250" height="90" as="geometry" />
        </mxCell>
        <mxCell id="AD6BldFnmuoz9lDEGxIW-51" style="edgeStyle=orthogonalEdgeStyle;rounded=0;orthogonalLoop=1;jettySize=auto;html=1;exitX=1;exitY=0.25;exitDx=0;exitDy=0;" edge="1" parent="myIlJPlCRd8tXCbRHFYI-1">
          <mxGeometry relative="1" as="geometry">
            <mxPoint x="510" y="960" as="targetPoint" />
            <mxPoint x="390" y="967.5" as="sourcePoint" />
            <Array as="points">
              <mxPoint x="511" y="968" />
            </Array>
          </mxGeometry>
        </mxCell>
        <mxCell id="AD6BldFnmuoz9lDEGxIW-48" value="Display &lt;em data-end=&quot;1019&quot; data-start=&quot;969&quot;&gt;&quot;Congratulations! You guessed the right number.&quot;&lt;/em&gt;" style="text;whiteSpace=wrap;html=1;fontStyle=1" vertex="1" parent="myIlJPlCRd8tXCbRHFYI-1">
          <mxGeometry x="175" y="950" width="215" height="70" as="geometry" />
        </mxCell>
        <mxCell id="AD6BldFnmuoz9lDEGxIW-49" value="No" style="text;html=1;align=center;verticalAlign=middle;whiteSpace=wrap;rounded=0;fontStyle=1" vertex="1" parent="myIlJPlCRd8tXCbRHFYI-1">
          <mxGeometry x="185.5" y="880" width="60" height="30" as="geometry" />
        </mxCell>
        <mxCell id="AD6BldFnmuoz9lDEGxIW-54" style="edgeStyle=orthogonalEdgeStyle;rounded=0;orthogonalLoop=1;jettySize=auto;html=1;" edge="1" parent="myIlJPlCRd8tXCbRHFYI-1" source="AD6BldFnmuoz9lDEGxIW-52">
          <mxGeometry relative="1" as="geometry">
            <mxPoint x="510" y="490" as="targetPoint" />
          </mxGeometry>
        </mxCell>
        <mxCell id="AD6BldFnmuoz9lDEGxIW-52" value="&#xa;Display &lt;em data-start=&quot;1057&quot; data-end=&quot;1084&quot;&gt;&quot;It took you X attempts.&quot;&lt;/em&gt; &#xa;&#xa;" style="rounded=0;whiteSpace=wrap;html=1;fontStyle=1" vertex="1" parent="myIlJPlCRd8tXCbRHFYI-1">
          <mxGeometry x="450" y="860" width="120" height="60" as="geometry" />
        </mxCell>
        <mxCell id="AD6BldFnmuoz9lDEGxIW-56" style="edgeStyle=orthogonalEdgeStyle;rounded=0;orthogonalLoop=1;jettySize=auto;html=1;" edge="1" parent="myIlJPlCRd8tXCbRHFYI-1" source="AD6BldFnmuoz9lDEGxIW-55">
          <mxGeometry relative="1" as="geometry">
            <mxPoint x="660" y="445" as="targetPoint" />
          </mxGeometry>
        </mxCell>
        <mxCell id="AD6BldFnmuoz9lDEGxIW-55" value="" style="rounded=0;whiteSpace=wrap;html=1;" vertex="1" parent="myIlJPlCRd8tXCbRHFYI-1">
          <mxGeometry x="430" y="400" width="170" height="90" as="geometry" />
        </mxCell>
        <mxCell id="AD6BldFnmuoz9lDEGxIW-57" value="No" style="text;html=1;align=center;verticalAlign=middle;whiteSpace=wrap;rounded=0;fontStyle=1" vertex="1" parent="myIlJPlCRd8tXCbRHFYI-1">
          <mxGeometry x="310.5" y="180" width="60" height="30" as="geometry" />
        </mxCell>
        <mxCell id="AD6BldFnmuoz9lDEGxIW-58" value="" style="rounded=0;whiteSpace=wrap;html=1;" vertex="1" parent="myIlJPlCRd8tXCbRHFYI-1">
          <mxGeometry x="325" y="540" width="120" height="60" as="geometry" />
        </mxCell>
        <mxCell id="AD6BldFnmuoz9lDEGxIW-59" value="Display &lt;em data-end=&quot;909&quot; data-start=&quot;885&quot;&gt;&quot;Too high! Try again.&quot;&lt;/em&gt;" style="text;whiteSpace=wrap;html=1;fontStyle=1" vertex="1" parent="myIlJPlCRd8tXCbRHFYI-1">
          <mxGeometry x="330" y="545" width="110" height="40" as="geometry" />
        </mxCell>
        <mxCell id="AD6BldFnmuoz9lDEGxIW-60" value="Yes" style="text;html=1;align=center;verticalAlign=middle;whiteSpace=wrap;rounded=0;fontStyle=1" vertex="1" parent="myIlJPlCRd8tXCbRHFYI-1">
          <mxGeometry x="440" y="290" width="60" height="30" as="geometry" />
        </mxCell>
        <mxCell id="AD6BldFnmuoz9lDEGxIW-61" value="Display: &lt;em data-end=&quot;1192&quot; data-start=&quot;1166&quot;&gt;&quot;Thank you for playing!&quot;&lt;/em&gt;" style="text;whiteSpace=wrap;html=1;fontStyle=1" vertex="1" parent="myIlJPlCRd8tXCbRHFYI-1">
          <mxGeometry x="445" y="420" width="150" height="40" as="geometry" />
        </mxCell>
        <mxCell id="AD6BldFnmuoz9lDEGxIW-62" value="" style="ellipse;whiteSpace=wrap;html=1;" vertex="1" parent="myIlJPlCRd8tXCbRHFYI-1">
          <mxGeometry x="660" y="405" width="120" height="80" as="geometry" />
        </mxCell>
        <mxCell id="AD6BldFnmuoz9lDEGxIW-63" value="&lt;strong data-start=&quot;1212&quot; data-end=&quot;1219&quot;&gt;End&lt;/strong&gt;" style="text;whiteSpace=wrap;html=1;" vertex="1" parent="myIlJPlCRd8tXCbRHFYI-1">
          <mxGeometry x="710" y="425" width="60" height="40" as="geometry" />
        </mxCell>
        <mxCell id="AD6BldFnmuoz9lDEGxIW-64" value="" style="endArrow=classic;html=1;rounded=0;entryX=0.5;entryY=1;entryDx=0;entryDy=0;" edge="1" parent="myIlJPlCRd8tXCbRHFYI-1" target="AD6BldFnmuoz9lDEGxIW-52">
          <mxGeometry width="50" height="50" relative="1" as="geometry">
            <mxPoint x="510" y="960" as="sourcePoint" />
            <mxPoint x="440" y="760" as="targetPoint" />
            <Array as="points">
              <mxPoint x="510" y="960" />
            </Array>
          </mxGeometry>
        </mxCell>
      </root>
    </mxGraphModel>
  </diagram>
</mxfile>
